<?xml version="1.0" standalone="no"?>
<!DOCTYPE svg PUBLIC "-//W3C//DTD SVG 20010904//EN"
 "http://www.w3.org/TR/2001/REC-SVG-20010904/DTD/svg10.dtd">
<svg version="1.0" xmlns="http://www.w3.org/2000/svg"
 width="4096.000000pt" height="1108.000000pt" viewBox="0 0 4096.000000 1108.000000"
 preserveAspectRatio="xMidYMid meet">

<g transform="translate(0.000000,1108.000000) scale(0.100000,-0.100000)"
fill="#000000" stroke="none">
<path d="M36925 9879 c-484 -3 -3098 -4 -5810 -1 -5187 5 -5135 5 -5350 -39
-419 -87 -801 -339 -1024 -674 -229 -344 -310 -650 -271 -1025 43 -413 194
-752 450 -1009 127 -128 313 -256 500 -344 182 -86 307 -120 555 -153 119 -16
258 -17 1605 -15 1038 2 1514 -1 1605 -9 280 -24 468 -134 560 -324 111 -230
39 -469 -186 -622 -88 -60 -159 -89 -284 -115 -86 -19 -139 -20 -1285 -19
-657 1 -1716 -2 -2352 -6 l-1158 -7 0 -22 c0 -12 5 -36 11 -54 8 -24 16 -31
28 -26 40 16 114 25 126 15 6 -5 14 -7 17 -5 10 11 48 14 53 4 4 -5 52 -9 108
-10 126 -1 305 -14 372 -27 28 -5 86 -13 130 -17 190 -16 280 -30 277 -43 -1
-8 11 -12 38 -12 29 0 40 -4 40 -15 0 -11 11 -15 38 -15 29 0 39 -5 47 -22 8
-18 20 -24 60 -28 34 -3 59 -13 77 -29 34 -30 91 -51 141 -51 33 0 37 -3 37
-25 0 -22 4 -25 40 -25 29 0 40 -4 40 -15 0 -19 75 -21 84 -2 5 9 7 9 12 0 3
-7 17 -13 31 -13 17 0 40 -14 65 -40 22 -22 41 -40 44 -40 2 0 4 9 4 20 0 26
15 25 34 -2 14 -20 14 -24 -1 -40 -15 -17 -14 -19 15 -29 18 -6 32 -15 32 -20
0 -5 18 -9 40 -9 33 0 40 -3 40 -20 0 -17 7 -20 40 -20 22 0 40 -4 40 -10 0
-5 -15 -10 -34 -10 -19 0 -38 -4 -41 -10 -3 -5 2 -10 12 -10 10 0 29 -12 42
-25 17 -18 34 -25 62 -25 28 0 39 -4 39 -15 0 -8 7 -15 15 -15 11 0 15 -11 15
-40 0 -33 3 -40 20 -40 17 0 20 7 20 41 0 37 1 39 16 25 8 -9 20 -16 25 -16
17 0 9 -19 -11 -25 -28 -9 -25 -25 5 -25 23 0 25 -4 25 -40 0 -36 -2 -40 -25
-40 -14 0 -25 -4 -25 -10 0 -5 -7 -10 -15 -10 -10 0 -15 -10 -15 -30 0 -25 -4
-30 -25 -30 -14 0 -25 -4 -25 -10 0 -5 -18 -10 -40 -10 -22 0 -40 -4 -40 -10
0 -5 15 -10 34 -10 19 0 38 -4 41 -10 3 -5 24 -10 45 -10 21 0 50 -4 63 -9 65
-25 2500 -36 2662 -13 336 49 478 100 815 297 80 47 275 240 345 343 193 283
247 412 280 674 43 341 26 590 -56 848 -93 290 -345 636 -581 800 -254 175
-435 251 -738 307 l-145 26 -1675 7 c-1557 5 -1679 7 -1735 23 -225 66 -392
224 -424 401 -43 233 51 410 289 543 80 45 145 61 299 74 136 12 4786 5 6981
-10 l915 -6 -4 -935 c-1 -514 0 -1492 5 -2172 l7 -1238 551 0 c416 0 555 3
564 12 9 9 12 498 12 2139 0 1169 3 2141 6 2159 l7 32 1551 -6 c853 -3 1574
-8 1603 -12 l52 -6 -6 569 c-4 395 -9 570 -17 575 -12 8 -49 8 -1461 -3z
m-8965 -509 c0 -5 -7 -10 -15 -10 -8 0 -15 5 -15 10 0 6 7 10 15 10 8 0 15 -4
15 -10z m4950 -30 c0 -5 -4 -10 -10 -10 -5 0 -10 5 -10 10 0 6 5 10 10 10 6 0
10 -4 10 -10z m-2830 -4570 c0 -5 9 -10 21 -10 l20 0 -21 -30 c-12 -17 -20
-37 -17 -44 3 -7 0 -13 -6 -13 -33 1 -47 -4 -44 -15 1 -7 -6 -13 -15 -12 -59
3 -68 5 -68 19 0 18 52 75 68 75 6 0 16 9 22 20 11 21 40 28 40 10z m-3160
-80 c0 -5 -4 -10 -10 -10 -5 0 -10 5 -10 10 0 6 5 10 10 10 6 0 10 -4 10 -10z
m10 -100 c-20 -13 -50 -13 -50 0 0 6 15 10 33 10 24 0 28 -3 17 -10z"/>
<path d="M30000 4670 c0 -5 5 -10 10 -10 6 0 10 5 10 10 0 6 -4 10 -10 10 -5
0 -10 -4 -10 -10z"/>
<path d="M5565 9870 c-533 -3 -949 -7 -922 -9 26 -2 52 -5 57 -6 6 -1 51 -3
101 -4 57 -1 88 -5 84 -11 -4 -6 34 -10 107 -11 76 -1 102 -4 78 -9 -27 -6
-17 -8 45 -9 129 -2 336 -11 385 -16 71 -8 184 -15 325 -20 78 -2 131 -8 133
-15 2 -5 9 -7 15 -3 7 4 51 8 99 10 82 2 87 1 90 -19 3 -21 4 -21 21 -4 16 16
18 16 34 0 16 -15 17 -15 23 2 5 13 9 14 14 5 4 -6 24 -12 44 -12 86 -1 102
-2 102 -10 0 -5 18 -9 40 -9 29 0 40 -4 40 -15 0 -12 16 -15 80 -15 64 0 80 3
80 15 0 11 11 15 40 15 l40 0 0 -40 0 -40 40 0 c29 0 40 -4 40 -15 0 -11 11
-15 40 -15 l40 0 0 -105 0 -105 -40 0 -40 0 0 -40 0 -40 -40 0 -40 0 0 -40 0
-40 -40 0 c-29 0 -40 -4 -40 -15 0 -11 -11 -15 -40 -15 -29 0 -40 4 -40 15 0
11 -11 15 -40 15 l-40 0 0 -40 0 -40 -40 0 c-33 0 -40 3 -40 20 0 11 -4 20
-10 20 -5 0 -15 -9 -22 -20 -7 -11 -21 -20 -30 -20 -14 0 -18 -8 -18 -40 l0
-40 -40 0 -40 0 0 -40 0 -40 -40 0 -40 0 0 -40 0 -40 -40 0 -40 0 0 -40 c0
-39 -1 -40 -36 -40 -19 0 -44 -5 -54 -10 -13 -7 -21 -7 -25 0 -3 5 3 10 14 10
29 0 26 11 -12 48 -37 36 -47 39 -47 17 0 -11 -11 -15 -35 -15 -20 0 -55 -10
-78 -21 -37 -19 -40 -23 -22 -30 11 -4 -261 -8 -605 -8 -344 -1 -1038 -4
-1542 -7 l-918 -7 -2 454 c-2 250 -2 482 0 517 l3 62 39 0 c22 0 40 5 40 10 0
6 -28 10 -64 10 -59 0 -64 -2 -68 -23 -2 -13 -6 -265 -7 -560 l-3 -537 49 7
c26 4 748 7 1603 8 l1555 0 8 -245 c5 -143 4 -678 -2 -1280 -7 -606 -9 -1407
-5 -1932 l7 -897 559 2 558 2 1 1540 c1 847 5 1826 8 2175 l6 635 475 -3 c261
-2 885 2 1385 8 1258 15 5378 23 5567 10 230 -16 336 -51 498 -165 172 -121
278 -283 306 -468 25 -165 16 -294 -32 -481 -29 -113 -36 -130 -99 -220 -54
-77 -136 -154 -228 -213 -77 -50 -104 -63 -242 -112 -113 -41 -130 -62 -55
-72 25 -3 60 -15 79 -26 l34 -21 -26 -26 c-14 -14 -36 -26 -48 -26 -12 0 -27
-7 -33 -16 -14 -18 -99 -37 -104 -23 -2 5 -14 9 -27 9 -18 0 -23 7 -28 35 -4
22 0 46 9 63 17 33 18 62 2 62 -817 4 -4375 -3 -4381 -9 -5 -5 -11 -603 -14
-1329 l-6 -1320 24 -4 c49 -6 229 3 224 13 -4 5 3 9 14 9 11 0 23 5 26 10 3 5
16 10 27 10 12 0 19 3 16 6 -3 3 -56 7 -118 9 -62 2 -115 7 -119 12 -10 11 10
233 20 233 5 0 9 11 9 24 0 27 70 102 108 117 13 5 48 9 78 9 33 0 54 4 54 11
0 8 24 9 80 4 56 -5 80 -4 80 4 0 6 17 11 40 11 23 0 40 -5 40 -11 0 -8 23 -9
78 -4 42 4 95 8 116 9 22 1 41 7 44 14 4 14 39 16 44 3 2 -6 18 -13 36 -16 24
-4 34 -1 38 10 4 8 10 15 14 15 7 0 27 -49 34 -83 12 -58 16 -103 20 -239 3
-87 8 -162 11 -168 3 -5 24 -10 46 -10 l39 0 0 760 0 760 879 0 879 0 118
-100 c66 -55 164 -141 220 -192 102 -94 227 -206 474 -423 75 -66 197 -174
271 -240 156 -140 371 -322 414 -352 31 -21 135 -78 217 -119 73 -36 190 -63
332 -74 139 -11 1323 -14 1375 -4 26 6 31 10 25 28 -3 11 -27 41 -52 66 -168
159 -257 242 -317 295 -126 111 -360 318 -365 324 -3 3 -39 35 -80 71 -41 36
-133 117 -205 180 -71 63 -161 142 -200 175 -154 133 -420 396 -420 416 0 5
87 39 194 75 106 35 230 81 275 101 108 49 267 147 374 230 104 80 308 285
385 386 189 246 328 550 379 827 19 100 22 151 22 385 0 370 -15 488 -83 645
-100 235 -150 329 -254 485 -55 82 -307 330 -392 386 -143 94 -167 107 -277
162 -182 90 -365 147 -593 185 -92 15 -419 16 -4160 17 -2233 0 -4496 -2
-5030 -5z m-382 -47 c-13 -2 -35 -2 -50 0 -16 2 -5 4 22 4 28 0 40 -2 28 -4z
m64 1 c-3 -3 -12 -4 -19 -1 -8 3 -5 6 6 6 11 1 17 -2 13 -5z m632 -995 c-17
-11 -39 -12 -39 -1 0 4 12 8 27 9 19 1 22 -1 12 -8z m38 -6 c-4 -3 1 -12 11
-19 9 -7 14 -16 9 -20 -4 -4 -16 2 -27 13 -18 20 -17 33 3 33 6 0 7 -3 4 -7z
m63 -43 c0 -5 -2 -10 -4 -10 -3 0 -8 5 -11 10 -3 6 -1 10 4 10 6 0 11 -4 11
-10z"/>
<path d="M17405 9870 l-190 -5 -8 -330 c-4 -181 -6 -915 -4 -1630 3 -1184 4
-1308 20 -1395 93 -505 219 -823 452 -1134 233 -312 603 -598 951 -736 180
-72 344 -119 484 -138 155 -22 170 -23 170 -13 0 5 -6 12 -12 14 -10 4 -10 6
0 6 14 1 -22 41 -37 41 -5 0 -17 -8 -26 -17 -16 -16 -18 -15 -34 4 -10 13 -32
23 -60 26 -24 3 -47 11 -52 18 -6 10 -9 10 -15 -4 -7 -18 -39 -23 -49 -8 -3 5
-1 13 5 16 8 5 7 11 -1 21 -9 11 -7 14 10 14 12 0 21 6 21 15 0 8 -6 15 -14
15 -8 0 -22 3 -32 7 -12 4 -15 3 -10 -5 4 -7 4 -12 -1 -13 -60 -7 -93 -7 -93
1 0 6 15 10 33 10 24 0 28 3 17 10 -12 8 -10 10 10 11 14 0 19 3 12 6 -25 10
9 33 49 33 35 0 39 3 39 25 0 23 4 25 40 25 43 0 54 14 19 23 -12 3 -19 12
-17 19 4 9 21 12 61 10 47 -3 57 -1 57 12 0 13 14 16 90 16 79 0 91 2 100 20
6 11 7 20 3 20 -4 0 -2 5 5 12 16 16 15 28 -3 28 -20 0 -19 10 5 35 17 19 29
21 70 17 41 -4 50 -2 50 11 0 11 -12 17 -42 20 l-43 4 43 1 c30 1 42 6 42 17
0 11 11 15 40 15 36 0 40 2 40 26 0 25 2 26 48 22 41 -3 50 0 70 24 30 36 42
35 42 -2 0 -20 5 -30 15 -30 11 0 15 11 15 40 l0 40 43 0 c31 0 45 5 55 20 7
11 17 20 22 20 6 0 10 -9 10 -20 0 -27 7 -25 35 9 22 26 29 28 75 23 41 -4 50
-2 50 12 0 12 10 16 40 16 33 0 40 3 40 20 0 17 7 20 39 20 33 0 40 4 44 23 3
21 4 21 15 -5 16 -38 29 -35 49 11 l17 39 73 7 c40 4 77 4 82 0 6 -3 28 3 50
15 24 12 42 16 46 10 9 -15 35 -12 35 5 0 22 35 36 62 26 23 -10 23 -10 -4
-10 -16 -1 -28 -5 -28 -11 0 -15 19 -12 54 9 26 16 57 20 210 24 116 3 181 8
185 15 8 14 148 42 224 45 30 1 53 6 50 10 -3 5 8 7 25 6 16 -2 36 1 43 7 8 6
37 17 64 24 55 14 53 14 210 90 116 57 197 109 259 165 6 6 37 30 69 54 31 24
57 47 57 52 0 5 5 9 11 9 5 0 7 -4 4 -10 -3 -5 -1 -10 5 -10 7 0 10 6 7 14 -7
18 48 80 62 72 7 -5 8 -1 4 10 -5 14 -3 16 11 11 13 -5 17 -3 13 7 -6 15 18
42 25 29 3 -4 3 -2 2 5 -4 13 65 110 73 104 3 -2 8 0 11 4 4 4 1 4 -5 0 -19
-10 -16 8 5 35 10 13 29 47 42 76 16 35 27 48 33 40 5 -7 6 -2 2 12 -4 13 -3
26 2 30 5 3 16 29 26 56 10 30 15 38 13 20 -3 -16 -8 -38 -11 -47 -4 -11 -3
-18 4 -18 6 0 11 7 11 15 0 9 6 12 15 9 12 -5 14 2 11 37 -2 24 -1 31 1 16 2
-16 11 -31 18 -33 9 -4 13 -16 10 -35 -3 -16 -7 -42 -10 -59 -4 -29 -3 -30 34
-30 22 0 42 6 44 13 3 6 6 -7 6 -30 1 -24 6 -43 11 -43 6 0 10 -17 10 -39 0
-33 3 -39 25 -43 14 -3 25 -1 25 3 0 5 18 9 39 9 37 0 40 -2 43 -32 l4 -33 12
28 c16 37 29 34 49 -13 16 -37 21 -40 55 -40 25 0 38 -5 38 -14 0 -10 34 -14
154 -18 149 -5 155 -6 180 -31 14 -14 26 -30 26 -34 0 -4 14 -23 30 -40 l31
-33 -31 6 c-35 7 -37 0 -11 -40 19 -28 19 -29 -1 -72 -10 -24 -20 -64 -21 -89
-1 -29 -6 -44 -13 -41 -7 3 -10 -3 -7 -15 3 -10 0 -19 -6 -19 -6 0 -11 -13
-11 -29 0 -17 -4 -33 -10 -36 -16 -10 -11 -25 9 -25 17 0 57 60 133 197 53 97
149 357 186 508 26 103 58 300 73 440 15 139 24 1878 14 2663 l-7 562 -568 0
-568 0 -6 -22 c-10 -40 -27 -1752 -24 -2476 3 -643 2 -704 -15 -782 -57 -264
-179 -490 -363 -674 -238 -236 -498 -360 -811 -386 -143 -12 -834 -12 -1333 0
-300 7 -383 12 -465 28 -118 24 -280 74 -350 109 -105 53 -293 205 -404 327
-132 144 -239 352 -313 611 l-23 80 -2 1570 c-2 864 -5 1580 -8 1593 l-5 22
-373 -2 c-204 -1 -457 -5 -562 -8z m5180 -50 c3 -5 33 -10 66 -10 39 0 73 -7
98 -19 21 -11 48 -17 60 -14 12 3 21 1 21 -6 0 -5 12 -17 27 -24 l26 -14 -37
-7 c-35 -7 -37 -8 -20 -21 18 -13 18 -15 -8 -40 -15 -14 -34 -25 -43 -25 -8 0
-15 -6 -15 -13 0 -18 -53 -67 -72 -67 -28 0 -60 -50 -53 -82 9 -39 9 -763 1
-818 -4 -25 -11 -67 -16 -95 -5 -27 -12 -67 -15 -87 -4 -29 -11 -38 -25 -38
-11 0 -20 -9 -23 -22 -3 -15 -5 -10 -5 12 0 19 -6 55 -12 80 -13 48 -26 1193
-15 1278 5 36 10 42 30 42 13 0 27 -4 30 -10z m-58 -3212 c-3 -8 -6 -5 -6 6
-1 11 2 17 5 13 3 -3 4 -12 1 -19z m-29 -127 c3 -8 -1 -12 -9 -9 -7 2 -15 10
-17 17 -3 8 1 12 9 9 7 -2 15 -10 17 -17z m-3141 -1538 c-3 -3 -11 -2 -17 2
-9 6 -9 10 1 16 14 8 27 -7 16 -18z m3 -43 c0 -17 -7 -20 -40 -20 -33 0 -40 3
-40 20 0 17 7 20 40 20 33 0 40 -3 40 -20z m-463 -236 c-3 -3 -12 -4 -19 -1
-8 3 -5 6 6 6 11 1 17 -2 13 -5z m-47 -34 c13 -8 13 -10 -2 -10 -9 0 -20 5
-23 10 -8 13 5 13 25 0z"/>
<path d="M4993 9813 c9 -2 23 -2 30 0 6 3 -1 5 -18 5 -16 0 -22 -2 -12 -5z"/>
<path d="M18402 8212 c-3 -1243 0 -1402 29 -1588 12 -76 21 -100 35 -91 5 3
11 653 12 1445 l4 1439 -34 32 c-18 17 -35 31 -38 31 -3 0 -6 -571 -8 -1268z"/>
<path d="M26075 8689 c-102 -7 -143 -22 -231 -85 -79 -56 -137 -122 -174 -198
-30 -62 -52 -141 -42 -151 9 -9 30 -6 44 8 36 35 84 59 145 74 59 13 210 17
1088 23 1477 11 6744 5 6756 -7 7 -7 12 -697 15 -2069 4 -1924 5 -2060 21
-2071 9 -7 27 -13 40 -13 18 0 23 6 23 26 0 14 -9 37 -20 51 -11 15 -18 33
-16 42 3 9 8 124 11 256 4 132 10 267 14 300 4 33 5 218 2 410 -8 487 -7 1296
2 1693 7 337 25 544 53 615 8 21 12 42 9 47 -3 5 14 17 37 28 35 15 45 27 56
58 15 48 28 254 42 649 8 235 7 301 -3 308 -6 4 -113 7 -236 5 -206 -3 -224
-5 -237 -23 -8 -10 -25 -24 -38 -30 -31 -13 -86 -82 -86 -107 0 -10 -8 -21
-17 -24 -10 -3 -39 -15 -65 -25 -35 -14 -86 -21 -200 -27 -203 -9 -4454 -9
-4858 1 -760 18 -1057 34 -1102 58 -9 5 -28 10 -42 11 -21 2 -26 8 -26 29 0
15 -5 29 -12 31 -7 3 -13 20 -13 39 -1 30 -4 34 -30 37 -17 2 -35 8 -41 13 -6
4 -24 8 -40 8 -16 0 -103 2 -194 5 -275 10 -540 12 -635 5z"/>
<path d="M7095 8680 c-3 -5 -5 -598 -5 -1317 2 -1596 -12 -2959 -29 -2992 -15
-26 -17 -23 34 -48 22 -11 85 -47 140 -81 55 -33 110 -63 123 -67 l22 -6 0
1118 c0 1115 16 3062 24 3071 11 10 6552 14 6921 3 462 -12 532 -24 728 -122
81 -40 135 -52 120 -25 -22 39 -216 173 -293 204 -103 40 -141 45 -355 46
-233 1 -908 -11 -1110 -20 -214 -10 -3194 -6 -3695 5 -409 8 -694 25 -800 47
-22 5 -23 7 -7 15 9 6 17 19 17 30 0 11 7 22 15 25 20 8 19 31 -2 42 -23 14
-25 40 -2 47 10 4 19 10 19 14 0 19 -1853 30 -1865 11z"/>
<path d="M5801 8664 c0 -11 3 -14 6 -6 3 7 2 16 -1 19 -3 4 -6 -2 -5 -13z"/>
<path d="M35252 8524 l3 -159 1342 -3 1342 -2 113 96 c62 54 129 109 149 123
63 46 102 82 95 88 -3 3 -690 8 -1526 11 l-1521 5 3 -159z"/>
<path d="M14580 8630 c58 -16 139 -42 179 -59 41 -17 76 -29 78 -27 2 2 -33
22 -79 44 -57 29 -111 46 -172 57 -125 21 -127 18 -6 -15z"/>
<path d="M24373 8460 c-91 -191 -124 -335 -130 -566 -5 -161 -3 -193 16 -283
35 -161 91 -324 143 -414 15 -26 28 -51 28 -54 0 -13 96 -161 154 -237 158
-210 463 -464 662 -552 32 -14 127 -43 209 -64 264 -67 290 -68 2005 -75 833
-4 1535 -10 1560 -15 192 -36 359 -163 438 -332 12 -26 22 -54 22 -61 0 -23
12 -27 41 -11 44 22 51 44 34 105 -16 61 -39 117 -57 139 -24 29 -143 108
-228 150 -217 109 -228 110 -1060 110 -608 0 -1404 13 -1484 25 -16 2 -33 9
-37 16 -6 10 -11 10 -24 -1 -12 -10 -19 -10 -27 -2 -7 7 -24 12 -39 12 -47 0
-89 12 -89 26 0 7 -9 18 -20 24 -16 9 -20 8 -20 -5 0 -8 -4 -15 -10 -15 -5 0
-10 9 -10 19 0 11 -5 23 -11 27 -8 4 -7 9 2 15 12 7 12 9 0 9 -8 0 -22 -7 -32
-16 -10 -9 -23 -13 -29 -9 -9 6 -9 9 0 15 9 6 0 15 -28 29 -25 13 -43 17 -47
11 -9 -14 -42 -13 -47 2 -4 12 -25 16 -130 22 -37 2 -82 6 -100 10 -95 17
-145 16 -169 -2 -21 -16 -38 -19 -125 -15 -114 4 -122 0 -131 -65 l-5 -39 -42
8 c-363 64 -505 129 -702 324 -79 77 -154 170 -154 189 0 7 -9 21 -20 31 -11
10 -20 22 -20 28 0 5 -9 22 -21 38 -19 27 -18 56 2 44 5 -4 9 1 9 9 0 19 -26
21 -33 4 -4 -10 -7 -10 -18 0 -11 10 -10 12 4 12 9 0 17 5 17 11 0 5 5 7 10 4
6 -4 17 -1 25 5 12 10 15 9 15 -4 0 -9 7 -16 15 -16 8 0 15 -6 15 -13 0 -18
32 -47 52 -47 9 0 22 -9 29 -21 10 -14 19 -18 33 -13 19 7 19 8 0 15 -17 7
-17 8 -1 8 17 1 22 12 10 24 -3 4 -7 22 -8 40 0 21 -11 44 -28 63 -16 16 -38
45 -50 64 -12 19 -27 41 -34 48 -24 25 -183 284 -183 299 0 2 -7 11 -15 19 -8
9 -15 26 -15 40 0 13 -4 32 -10 42 -8 14 -20 57 -44 154 -3 10 -11 32 -20 50
-8 18 -17 56 -21 83 -5 43 -22 92 -26 75 -3 -14 -30 -268 -31 -287 0 -13 -4
-21 -8 -18 -4 3 -11 42 -15 88 -5 64 -3 99 10 148 9 35 17 78 17 95 0 23 4 31
17 30 10 -1 17 8 19 27 4 32 -13 37 -21 5 -4 -12 -9 -20 -12 -16 -3 3 -1 16 4
29 6 13 15 69 19 124 5 55 19 142 31 194 12 51 20 99 18 105 -2 6 -22 -27 -44
-74z m137 -945 c0 -8 -4 -15 -10 -15 -5 0 -10 7 -10 15 0 8 5 15 10 15 6 0 10
-7 10 -15z m-70 -109 c0 -12 5 -27 11 -33 6 -6 9 -17 7 -25 -3 -7 -12 4 -22
26 -18 43 -21 70 -6 61 6 -3 10 -16 10 -29z m177 -283 c-3 -10 -5 -4 -5 12 0
17 2 24 5 18 2 -7 2 -21 0 -30z m-17 -9 c0 -8 -4 -14 -10 -14 -5 0 -10 9 -10
21 0 11 5 17 10 14 6 -3 10 -13 10 -21z m1571 -688 c-24 -28 -131 -29 -131 -1
0 9 21 13 71 14 60 1 70 -1 60 -13z"/>
<path d="M4765 8454 c-291 -6 -769 -12 -1062 -13 -292 -1 -538 -4 -547 -7 -20
-8 -7 -35 29 -58 24 -16 31 -16 63 -4 30 11 126 12 522 7 267 -4 834 -7 1260
-8 l775 -2 3 51 3 50 -258 -2 c-142 0 -496 -7 -788 -14z"/>
<path d="M16490 8102 c0 -59 -20 -202 -35 -252 -8 -25 -16 -70 -20 -100 -21
-185 -66 -378 -122 -520 -64 -164 -173 -361 -283 -509 -117 -158 -326 -345
-535 -481 -157 -101 -456 -231 -612 -265 -18 -3 -36 -11 -40 -17 -6 -11 43
-59 157 -156 30 -25 77 -66 103 -91 l48 -46 82 29 c150 53 404 186 522 275
285 213 503 478 629 765 59 136 129 363 151 491 22 124 25 368 8 625 -10 159
-32 290 -49 290 -2 0 -4 -17 -4 -38z"/>
<path d="M29570 6315 c0 -9 -9 -34 -20 -56 -12 -23 -18 -48 -15 -60 4 -11 2
-19 -4 -19 -6 0 -11 5 -11 10 0 6 -7 10 -15 10 -12 0 -12 -5 3 -35 9 -19 25
-37 35 -41 9 -3 15 -9 12 -14 -3 -5 -12 -7 -20 -3 -10 3 -15 -2 -15 -16 0 -14
6 -21 19 -21 11 0 28 -11 39 -25 14 -17 22 -21 26 -13 3 9 15 1 35 -22 29 -32
32 -33 47 -18 36 36 38 169 3 239 -32 64 -119 125 -119 84z"/>
<path d="M22391 6254 c0 -11 3 -14 6 -6 3 7 2 16 -1 19 -3 4 -6 -2 -5 -13z"/>
<path d="M11237 5874 c-8 -9 -7 -864 2 -1234 l6 -255 33 -17 c41 -20 71 -47
83 -73 9 -20 49 -78 69 -102 6 -7 21 -13 34 -13 21 0 24 5 29 68 4 37 10 363
14 725 l6 658 51 -8 c58 -9 1501 -7 1559 3 20 3 37 9 37 14 0 4 -23 23 -51 40
l-50 33 -387 9 c-213 4 -400 12 -417 17 l-30 9 32 1 c18 1 32 4 32 9 -3 20 2
32 16 32 8 0 15 -5 15 -12 0 -6 8 -4 20 7 12 11 29 16 45 13 14 -3 23 -3 19 1
-3 3 70 13 163 21 l168 16 -240 7 c-132 4 -420 12 -640 17 -220 5 -447 12
-505 15 -58 3 -109 3 -113 -1z"/>
<path d="M23217 5378 c-7 -17 -161 -224 -199 -268 -80 -90 -75 -84 -53 -72 19
11 89 82 130 133 57 71 140 208 131 216 -2 2 -6 -2 -9 -9z"/>
<path d="M24365 5330 c-16 -18 -16 -20 -1 -35 15 -15 17 -14 26 10 19 49 7 60
-25 25z"/>
<path d="M17750 5196 c0 -7 38 -60 147 -206 18 -25 98 -110 176 -188 112 -114
168 -161 267 -227 324 -216 648 -344 955 -375 157 -16 1017 -10 1023 8 2 7 20
12 43 12 28 0 39 4 39 15 0 11 -11 15 -40 15 -28 0 -40 4 -40 14 0 18 -40 27
-92 21 l-43 -5 39 10 c22 6 42 13 45 17 3 3 -6 3 -21 -1 -14 -3 -41 -3 -58 1
l-32 6 28 12 c24 9 -17 13 -231 18 -658 18 -910 50 -1236 157 -309 102 -680
364 -927 654 -23 27 -42 46 -42 42z"/>
<path d="M26225 5050 c-3 -5 -1 -10 4 -10 6 0 11 5 11 10 0 6 -2 10 -4 10 -3
0 -8 -4 -11 -10z"/>
<path d="M10240 4826 c0 -9 7 -12 20 -9 31 8 34 23 6 23 -16 0 -26 -6 -26 -14z"/>
<path d="M30060 4534 c-225 -114 -400 -165 -662 -194 -61 -6 -461 -10 -1065
-10 -1271 -1 -1921 -14 -2298 -46 -38 -3 -98 -8 -132 -11 -71 -5 -85 -23 -20
-24 l42 -1 -35 -11 c-73 -23 311 -29 1875 -31 l1580 -1 116 22 c212 41 391
118 583 250 61 42 113 79 116 83 3 3 18 16 34 28 45 35 22 25 -134 -54z"/>
<path d="M26700 4560 c0 -5 5 -10 10 -10 6 0 10 5 10 10 0 6 -4 10 -10 10 -5
0 -10 -4 -10 -10z"/>
<path d="M19320 4506 c0 -8 71 -12 76 -4 3 4 -13 8 -35 8 -23 0 -41 -2 -41 -4z"/>
<path d="M14575 4455 c61 -55 230 -169 305 -206 93 -46 185 -52 805 -53 308
-1 616 1 685 4 69 3 137 2 152 -2 l26 -8 -28 58 c-16 33 -33 91 -41 137 -14
93 -24 110 -39 69 -11 -28 -8 -91 6 -128 7 -18 -14 -19 -697 -12 -387 4 -740
11 -784 17 -110 14 -212 50 -327 115 -53 30 -100 54 -105 54 -4 0 15 -21 42
-45z"/>
<path d="M34633 4320 c-122 -3 -226 -9 -229 -13 -4 -4 10 -8 32 -8 21 -1 31
-3 20 -6 -17 -5 -17 -6 4 -16 31 -16 27 -30 -10 -40 -18 -4 -30 -10 -27 -13
16 -17 130 -35 249 -41 122 -5 140 -4 165 12 37 25 133 116 133 126 0 5 -26 8
-57 7 -32 -1 -158 -4 -280 -8z"/>
<path d="M15300 3645 c-16 -20 -8 -1448 9 -1515 25 -101 69 -175 160 -272 106
-114 218 -156 476 -178 178 -15 1248 -11 1265 6 6 6 11 69 13 150 l2 139 -635
6 c-431 4 -653 10 -692 18 -98 21 -183 95 -208 182 -6 20 -10 286 -10 669 0
636 -5 740 -36 788 -14 21 -20 22 -173 22 -127 0 -161 -3 -171 -15z"/>
<path d="M18627 3653 c-8 -8 -7 -1214 2 -1638 l6 -300 165 0 c91 0 173 4 183
7 16 7 17 60 17 920 0 502 -3 937 -6 966 l-7 52 -177 0 c-97 0 -180 -3 -183
-7z"/>
<path d="M24839 3653 l-847 -3 -6 -23 c-3 -12 -6 -75 -6 -139 l0 -118 78 0
c231 -2 863 -19 872 -25 7 -5 10 -249 10 -802 -1 -806 0 -823 34 -823 6 0 49
-40 94 -90 84 -90 112 -108 112 -69 0 11 12 41 26 65 15 25 23 48 20 52 -8 7
-13 8 -58 10 -16 1 -28 7 -28 12 0 6 29 10 68 10 37 0 73 4 79 8 10 6 13 186
15 823 l3 814 485 -4 c337 -2 493 0 513 8 l28 11 -3 142 -3 143 -320 0 c-176
0 -701 -1 -1166 -2z"/>
<path d="M20655 3635 c-110 -21 -197 -65 -271 -139 -70 -70 -95 -118 -125
-236 -56 -214 -14 -404 120 -546 53 -56 142 -115 220 -146 56 -22 59 -22 802
-28 l746 -5 37 -29 c58 -44 113 -136 122 -203 22 -176 -52 -301 -197 -332 -33
-7 -348 -11 -935 -11 l-885 0 3 -137 3 -138 175 -8 c96 -4 522 -6 945 -4 856
3 800 -1 945 72 154 78 267 229 292 391 15 99 -2 264 -36 352 -65 165 -238
312 -408 348 -62 13 -175 16 -728 15 -413 0 -674 4 -708 10 -69 14 -130 60
-162 124 -33 67 -35 186 -3 257 26 58 86 103 156 118 33 6 373 13 927 18 l875
7 3 126 3 125 -143 0 c-79 -1 -492 3 -918 7 -669 6 -786 5 -855 -8z"/>
<path d="M13610 2693 c-201 -3 -651 -20 -1005 -38 -154 -8 -473 -20 -710 -25
-236 -6 -671 -17 -965 -25 -294 -8 -652 -17 -795 -20 -143 -3 -458 -12 -700
-20 -509 -17 -1144 -35 -1260 -35 -49 0 -74 -4 -65 -9 8 -5 161 -11 340 -14
2569 -42 3707 -66 4205 -87 488 -21 763 -29 1115 -32 l365 -3 0 155 0 155
-185 0 c-102 1 -255 0 -340 -2z"/>
<path d="M27213 2685 c-2 -6 -2 -74 -1 -150 l3 -140 315 -3 c173 -2 504 4 735
12 821 30 2185 63 2955 71 289 3 696 10 905 15 209 5 520 12 690 16 287 6 380
14 315 28 -14 3 -225 8 -470 11 -654 8 -1344 23 -1865 40 -887 29 -1083 35
-1440 45 -198 6 -499 17 -670 25 -617 29 -816 35 -1139 38 -222 1 -330 -1
-333 -8z"/>
<path d="M18701 1668 c22 -41 74 -107 89 -113 10 -4 25 6 44 27 32 37 66 89
66 101 0 4 -47 7 -105 7 l-106 0 12 -22z"/>
</g>
</svg>
